v -0.08279000 0.76560500 0.39447200
v -0.08279000 0.93649600 0.35061400
v 0.06015000 0.71709800 0.40692100
v 0.06015000 0.71709800 0.40692100
v 0.06015000 0.98830800 0.33731600
v 0.06015000 0.98830800 0.33731600
v 0.06015000 0.72266600 0.42861800
v 0.06015000 0.72266600 0.42861800
v 0.06015000 0.72266600 0.42861800
v 0.06015000 0.99387700 0.35901300
v 0.06015000 0.99387700 0.35901300
v 0.06015000 0.99387700 0.35901300
v -0.08279000 0.71709800 0.40692100
v -0.08279000 0.71709800 0.40692100
v -0.08279000 0.98830800 0.33731600
v -0.08279000 0.98830800 0.33731600
v -0.08279000 0.99387700 0.35901300
v -0.08279000 0.99387700 0.35901300
v -0.08279000 0.99387700 0.35901300
v -0.11405000 0.67569500 0.44067300
v -0.11405000 0.67569500 0.44067300
v -0.11132300 0.67388300 0.44113800
v -0.11132300 0.67388300 0.44113800
v -0.11510500 0.67807800 0.44006200
v -0.11510500 0.67807800 0.44006200
v -0.08279000 0.72266600 0.42861800
v -0.08279000 0.72266600 0.42861800
v -0.08279000 0.72266600 0.42861800
v 0.11048000 0.67377900 0.44116500
v 0.11048000 0.67377900 0.44116500
v 0.11256000 0.67445100 0.44099200
v 0.11256000 0.67445100 0.44099200
v 0.11419800 0.67597400 0.44060200
v 0.11419800 0.67597400 0.44060200
v 0.11508200 0.67789000 0.44011000
v 0.11508200 0.67789000 0.44011000
v -0.11512500 1.03821300 0.34763500
v -0.11512500 1.03821300 0.34763500
v -0.11443200 1.04029600 0.34710000
v -0.11443200 1.04029600 0.34710000
v -0.11255300 1.04207600 0.34664300
v -0.11255300 1.04207600 0.34664300
v -0.11059000 1.04275400 0.34646900
v -0.11059000 1.04275400 0.34646900
v 0.11087700 1.04272600 0.34647600
v 0.11087700 1.04272600 0.34647600
v 0.11512100 1.03826800 0.34762000
v 0.11512100 1.03826800 0.34762000
v 0.11442700 1.04028300 0.34710300
v 0.11442700 1.04028300 0.34710300
v 0.11285600 1.04186900 0.34669600
v 0.11285600 1.04186900 0.34669600
v -0.11048000 0.67964600 0.46402400
v -0.11048000 0.67964600 0.46402400
v -0.11224600 0.68017600 0.46388800
v -0.11224600 0.68017600 0.46388800
v -0.11408800 0.68164200 0.46351200
v -0.11408800 0.68164200 0.46351200
v -0.11509000 0.68384900 0.46294500
v -0.11509000 0.68384900 0.46294500
v -0.11087700 1.04859200 0.36933600
v -0.11087700 1.04859200 0.36933600
v -0.11304900 1.04761600 0.36958600
v -0.11304900 1.04761600 0.36958600
v -0.11439900 1.04613500 0.36996600
v -0.11439900 1.04613500 0.36996600
v -0.11510500 1.04433100 0.37042900
v -0.11510500 1.04433100 0.37042900
v 0.11509600 1.04440500 0.37041000
v 0.11509600 1.04440500 0.37041000
v 0.11389500 1.04691400 0.36976600
v 0.11389500 1.04691400 0.36976600
v 0.11114600 1.04855300 0.36934600
v 0.11114600 1.04855300 0.36934600
v 0.11075900 0.67967000 0.46401800
v 0.11075900 0.67967000 0.46401800
v 0.11276500 0.68047300 0.46381200
v 0.11276500 0.68047300 0.46381200
v 0.11428900 0.68194500 0.46343400
v 0.11428900 0.68194500 0.46343400
v 0.11510100 0.68392700 0.46292500
v 0.11510100 0.68392700 0.46292500
vn -1.00000000 -0.00000000 -0.00000000
vn -1.00000000 -0.00000000 -0.00000000
vn -0.00000000 -0.96860000 0.24860000
vn 1.00000000 -0.00000000 -0.00000000
vn -0.00000000 0.96860000 -0.24860000
vn 1.00000000 -0.00000000 -0.00000000
vn -0.00000000 -0.24860000 -0.96860000
vn -0.00000000 -0.96860000 0.24860000
vn 1.00000000 -0.00000000 -0.00000000
vn -0.00000000 -0.24860000 -0.96860000
vn -0.00000000 0.96860000 -0.24860000
vn 1.00000000 -0.00000000 -0.00000000
vn -1.00000000 -0.00000000 -0.00000000
vn -0.00000000 -0.96860000 0.24860000
vn -0.00000000 0.96860000 -0.24860000
vn -1.00000000 -0.00000000 -0.00000000
vn -1.00000000 -0.00000000 -0.00000000
vn -0.00000000 0.96860000 -0.24860000
vn -0.00000000 -0.24860000 -0.96860000
vn -0.77290000 -0.61600000 0.15230000
vn -0.00220000 -0.24770000 -0.96880000
vn -0.00070000 -0.24870000 -0.96860000
vn -0.29470000 -0.92710000 0.23170000
vn -0.00010000 -0.24850000 -0.96860000
vn -0.97970000 -0.19440000 0.04970000
vn -1.00000000 -0.00000000 -0.00000000
vn -0.00000000 -0.96860000 0.24860000
vn -0.00000000 -0.24860000 -0.96860000
vn -0.00010000 -0.24850000 -0.96860000
vn 0.15890000 -0.95650000 0.24460000
vn 0.51810000 -0.82880000 0.21140000
vn -0.00030000 -0.24820000 -0.96870000
vn 0.00120000 -0.24930000 -0.96840000
vn 0.81760000 -0.55780000 0.14280000
vn 0.97810000 -0.20210000 0.05070000
vn 0.00030000 -0.24880000 -0.96850000
vn -0.00000000 -0.24860000 -0.96860000
vn -0.98800000 0.14910000 -0.03920000
vn 0.00010000 -0.24880000 -0.96860000
vn -0.85070000 0.50840000 -0.13390000
vn -0.52940000 0.82090000 -0.21430000
vn 0.00010000 -0.24880000 -0.96860000
vn -0.16910000 0.95450000 -0.24580000
vn -0.00000000 -0.24860000 -0.96860000
vn 0.20730000 0.94740000 -0.24380000
vn -0.00000000 -0.24860000 -0.96860000
vn -0.00000000 -0.24860000 -0.96860000
vn 0.98730000 0.15390000 -0.04040000
vn 0.85670000 0.49850000 -0.13260000
vn -0.00000000 -0.24850000 -0.96860000
vn 0.57450000 0.79160000 -0.20780000
vn 0.00010000 -0.24850000 -0.96860000
vn -0.00000000 0.24870000 0.96860000
vn -0.14620000 -0.95800000 0.24660000
vn -0.47550000 -0.85120000 0.22220000
vn -0.00000000 0.24870000 0.96860000
vn 0.00050000 0.24900000 0.96850000
vn -0.79720000 -0.58450000 0.15090000
vn -0.97890000 -0.19790000 0.05140000
vn 0.00020000 0.24750000 0.96890000
vn -0.00000000 0.24850000 0.96860000
vn -0.21450000 0.94670000 -0.24030000
vn -0.59850000 0.77670000 -0.19640000
vn -0.00030000 0.24880000 0.96860000
vn -0.85630000 0.50080000 -0.12660000
vn -0.00030000 0.24870000 0.96860000
vn -0.00000000 0.24860000 0.96860000
vn -0.98370000 0.17450000 -0.04360000
vn 0.97690000 0.20780000 -0.04930000
vn -0.00000000 0.24860000 0.96860000
vn 0.00030000 0.24870000 0.96860000
vn 0.74760000 0.64490000 -0.15850000
vn 0.27070000 0.93360000 -0.23490000
vn -0.00000000 0.24850000 0.96860000
vn -0.00010000 0.24780000 0.96880000
vn 0.19410000 -0.94950000 0.24640000
vn -0.00020000 0.24890000 0.96850000
vn 0.55540000 -0.80530000 0.20730000
vn -0.00010000 0.24880000 0.96860000
vn 0.83460000 -0.53350000 0.13720000
vn 0.98240000 -0.18090000 0.04700000
vn -0.00000000 0.24870000 0.96860000
vt 0.00000000 0.00000000
vt 0.00000000 0.00000000
vt 0.00000000 0.00000000
vt 0.00000000 0.00000000
vt 0.00000000 0.00000000
vt 0.00000000 0.00000000
vt 0.00000000 0.00000000
vt 0.00000000 0.00000000
vt 0.00000000 0.00000000
vt 0.00000000 0.00000000
vt 0.00000000 0.00000000
vt 0.00000000 0.00000000
vt 0.00000000 0.00000000
vt 0.00000000 0.00000000
vt 0.00000000 0.00000000
vt 0.00000000 0.00000000
vt 0.00000000 0.00000000
vt 0.00000000 0.00000000
vt 0.00000000 0.00000000
vt 0.00000000 0.00000000
vt 0.00000000 0.00000000
vt 0.00000000 0.00000000
vt 0.00000000 0.00000000
vt 0.00000000 0.00000000
vt 0.00000000 0.00000000
vt 0.00000000 0.00000000
vt 0.00000000 0.00000000
vt 0.00000000 0.00000000
vt 0.00000000 0.00000000
vt 0.00000000 0.00000000
vt 0.00000000 0.00000000
vt 0.00000000 0.00000000
vt 0.00000000 0.00000000
vt 0.00000000 0.00000000
vt 0.00000000 0.00000000
vt 0.00000000 0.00000000
vt 0.00000000 0.00000000
vt 0.00000000 0.00000000
vt 0.00000000 0.00000000
vt 0.00000000 0.00000000
vt 0.00000000 0.00000000
vt 0.00000000 0.00000000
vt 0.00000000 0.00000000
vt 0.00000000 0.00000000
vt 0.00000000 0.00000000
vt 0.00000000 0.00000000
vt 0.00000000 0.00000000
vt 0.00000000 0.00000000
vt 0.00000000 0.00000000
vt 0.00000000 0.00000000
vt 0.00000000 0.00000000
vt 0.00000000 0.00000000
vt 0.00000000 0.00000000
vt 0.00000000 0.00000000
vt 0.00000000 0.00000000
vt 0.00000000 0.00000000
vt 0.00000000 0.00000000
vt 0.00000000 0.00000000
vt 0.00000000 0.00000000
vt 0.00000000 0.00000000
vt 0.00000000 0.00000000
vt 0.00000000 0.00000000
vt 0.00000000 0.00000000
vt 0.00000000 0.00000000
vt 0.00000000 0.00000000
vt 0.00000000 0.00000000
vt 0.00000000 0.00000000
vt 0.00000000 0.00000000
vt 0.00000000 0.00000000
vt 0.00000000 0.00000000
vt 0.00000000 0.00000000
vt 0.00000000 0.00000000
vt 0.00000000 0.00000000
vt 0.00000000 0.00000000
vt 0.00000000 0.00000000
vt 0.00000000 0.00000000
vt 0.00000000 0.00000000
vt 0.00000000 0.00000000
vt 0.00000000 0.00000000
vt 0.00000000 0.00000000
vt 0.00000000 0.00000000
vt 0.00000000 0.00000000
f 9/9/9 6/6/6 12/12/12
f 4/4/4 6/6/6 9/9/9
f 18/18/18 11/11/11 15/15/15
f 11/11/11 5/5/5 15/15/15
f 24/24/24 22/22/22 21/21/21
f 28/28/28 22/22/22 24/24/24
f 7/7/7 22/22/22 28/28/28
f 7/7/7 29/29/29 22/22/22
f 36/36/36 32/32/32 29/29/29
f 36/36/36 33/33/33 32/32/32
f 36/36/36 29/29/29 7/7/7
f 19/19/19 28/28/28 24/24/24
f 37/37/37 19/19/19 24/24/24
f 42/42/42 37/37/37 39/39/39
f 44/44/44 37/37/37 42/42/42
f 44/44/44 19/19/19 37/37/37
f 10/10/10 19/19/19 44/44/44
f 46/46/46 10/10/10 44/44/44
f 47/47/47 10/10/10 46/46/46
f 47/47/47 36/36/36 7/7/7
f 47/47/47 7/7/7 10/10/10
f 50/50/50 47/47/47 46/46/46
f 52/52/52 50/50/50 46/46/46
f 14/14/14 3/3/3 27/27/27
f 3/3/3 8/8/8 27/27/27
f 16/16/16 2/2/2 17/17/17
f 1/1/1 26/26/26 2/2/2
f 2/2/2 26/26/26 17/17/17
f 1/1/1 13/13/13 26/26/26
f 55/55/55 23/23/23 54/54/54
f 55/55/55 20/20/20 23/23/23
f 58/58/58 20/20/20 55/55/55
f 59/59/59 20/20/20 58/58/58
f 59/59/59 25/25/25 20/20/20
f 25/25/25 68/68/68 38/38/38
f 59/59/59 68/68/68 25/25/25
f 41/41/41 62/62/62 43/43/43
f 41/41/41 63/63/63 62/62/62
f 40/40/40 63/63/63 41/41/41
f 40/40/40 65/65/65 63/63/63
f 40/40/40 68/68/68 65/65/65
f 38/38/38 68/68/68 40/40/40
f 62/62/62 73/73/73 45/45/45
f 62/62/62 45/45/45 43/43/43
f 49/49/49 69/69/69 48/48/48
f 49/49/49 72/72/72 69/69/69
f 51/51/51 72/72/72 49/49/49
f 51/51/51 73/73/73 72/72/72
f 45/45/45 73/73/73 51/51/51
f 69/69/69 81/81/81 35/35/35
f 69/69/69 35/35/35 48/48/48
f 31/31/31 76/76/76 30/30/30
f 31/31/31 78/78/78 76/76/76
f 31/31/31 80/80/80 78/78/78
f 34/34/34 80/80/80 31/31/31
f 35/35/35 80/80/80 34/34/34
f 35/35/35 81/81/81 80/80/80
f 76/76/76 23/23/23 30/30/30
f 76/76/76 54/54/54 23/23/23
f 60/60/60 57/57/57 56/56/56
f 53/53/53 60/60/60 56/56/56
f 75/75/75 60/60/60 53/53/53
f 79/79/79 75/75/75 77/77/77
f 82/82/82 75/75/75 79/79/79
f 82/82/82 60/60/60 75/75/75
f 67/67/67 60/60/60 82/82/82
f 61/61/61 66/66/66 67/67/67
f 61/61/61 64/64/64 66/66/66
f 74/74/74 61/61/61 67/67/67
f 70/70/70 67/67/67 82/82/82
f 70/70/70 74/74/74 67/67/67
f 71/71/71 74/74/74 70/70/70

